HIERARCHY
ROOT Hips
{
	OFFSET 0.000000 0.000000 0.000000 
	CHANNELS 6 Xposition Yposition Zposition Yrotation Zrotation Xrotation 
	JOINT Lumbar
	{
		OFFSET 0.000000 0.000000 0.000000 
		CHANNELS 3 Zrotation Xrotation Yrotation
		JOINT Neck
		{
			OFFSET 0.000000 0.445665 0.000000 
			CHANNELS 3 Zrotation Xrotation Yrotation
			End Site
			{
				OFFSET 0.000000 0.227535 0.000000 
			}
		}
		JOINT RightShoulder
		{
			OFFSET 0.019635 0.377685 0.194865 
			CHANNELS 3 Zrotation Xrotation Yrotation
			JOINT RightElbow
			{
				OFFSET 0.000000 -0.243375 0.000000 
				CHANNELS 2 Zrotation Yrotation
				JOINT RightWrist
				{
					OFFSET 0.000000 -0.264825 0.000000 
					CHANNELS 2 Zrotation Xrotation
					End Site
					{
						OFFSET 0.006600 -0.176220 0.000990 
					}
				}
			}
		}
		JOINT LeftShoulder
		{
			OFFSET 0.019635 0.377685 -0.194865 
			CHANNELS 3 Zrotation Xrotation Yrotation
			JOINT LeftElbow
			{
				OFFSET 0.000000 -0.243375 0.000000 
				CHANNELS 2 Zrotation Yrotation
				JOINT LeftWrist
				{
					OFFSET 0.000000 -0.264825 0.000000 
					CHANNELS 2 Zrotation Xrotation
					End Site
					{
						OFFSET 0.006600 -0.176220 -0.000990 
					}
				}
			}
		}
	}
	JOINT RightHip
	{
		OFFSET 0.052140 -0.069960 0.075570 
		CHANNELS 3 Zrotation Xrotation Yrotation
		JOINT RightKnee
		{
			OFFSET 0.000000 -0.402270 0.000000 
			CHANNELS 1 Zrotation
			JOINT RightAnkle
			{
				OFFSET 0.000000 -0.404085 0.000000 
				CHANNELS 3 Zrotation Xrotation Yrotation
				End Site
				{
					OFFSET 0.204105 -0.089430 0.008415 
				}
			}
		}
	}
	JOINT LeftHip
	{
		OFFSET 0.052140 -0.069960 -0.075570 
		CHANNELS 3 Zrotation Xrotation Yrotation
		JOINT LeftKnee
		{
			OFFSET 0.000000 -0.402270 0.000000 
			CHANNELS 1 Zrotation
			JOINT LeftAnkle
			{
				OFFSET 0.000000 -0.404085 0.000000 
				CHANNELS 3 Zrotation Xrotation Yrotation
				End Site
				{
					OFFSET 0.204105 -0.089430 -0.008415 
				}
			}
		}
	}
}
MOTION
Frames: 26
Frame Time: 0.02
-1.69603 0.93224 0.29792 1012.60509 0 -3.74079 5.10808 2.63088 3.89275 -17.7684 1.95531 2.12894 -3.13218 2.38192 64.12831 12.13432 85.01896 -24.48808 -4.22785 2.23068 -0.67619 -64.17116 15.14211 -94.19205 -11.21736 7.18474 -12.5595 2.96804 4.66426 -29.29822 -4.88287 -1.72386 3.09255 8.48296 -3.90075 3.79884 -2.8298 1.7109 5.36784 12.9024
-1.68375 0.93389 0.31253 1012.16575 0 -3.65097 5.43952 2.69583 3.61493 -17.95826 1.4451 1.47061 -2.82551 2.56809 63.70966 12.43614 84.08762 -24.03972 -4.07359 2.19144 -0.23062 -64.17113 15.46361 -94.69 -11.51807 7.23983 -10.25782 2.36623 4.50559 -33.57297 -7.38958 -1.73589 3.82717 7.46866 -4.23299 4.64511 -2.93005 1.94952 5.27864 12.18449
-1.67171 0.93537 0.32603 1011.73617 0 -3.69035 5.60884 2.9197 3.39228 -17.82803 0.8217 0.85651 -2.82327 2.84907 63.17833 12.78978 82.77263 -23.4616 -3.85589 1.83238 0.34328 -64.1711 15.84025 -95.075 -11.67673 7.41732 -7.44963 1.90329 4.43278 -38.29926 -9.96881 -1.88984 4.2865 6.55526 -4.47749 5.98546 -3.13946 2.54828 5.23994 11.0343
-1.65961 0.93692 0.33999 1011.3203 0 -3.67682 5.84916 3.07282 3.1312 -17.84824 0.25631 0.22241 -2.67842 3.08619 62.71774 13.10652 81.69175 -22.94988 -3.67668 1.6256 0.84994 -64.17107 16.18041 -95.50277 -11.8995 7.53133 -4.88521 1.40105 4.32644 -42.75092 -12.35347 -1.96876 4.84534 5.59392 -4.75782 7.04624 -3.28974 2.9749 5.18509 10.12304
-1.64727 0.93855 0.35414 1010.82772 0 -3.63591 6.10345 3.21942 2.92452 -17.8495 -0.34275 -0.41724 -2.54628 3.32959 62.1783 13.47976 80.37249 -22.40159 -3.45856 1.39138 1.39886 -64.17104 16.56897 -95.97405 -12.12805 7.67496 -2.24979 0.79374 4.19215 -47.52526 -15.42667 -2.0878 5.5211 4.63364 -5.06194 8.32108 -3.47165 3.43375 5.10354 9.04651
-1.6355 0.93995 0.36762 1010.50113 0 -3.68378 6.28865 3.41649 2.61914 -17.81401 -0.89378 -1.03303 -2.46175 3.5803 61.77117 13.74783 79.45104 -21.90096 -3.30537 1.13846 1.88676 -64.17101 16.86996 -96.32155 -12.31136 7.78826 0.34989 0.4405 4.13743 -51.71016 -17.08795 -2.16197 5.88167 3.6984 -5.29239 9.27271 -3.61751 3.91218 5.08808 8.20429
-1.62517 0.9407 0.37956 1010.58318 0 -3.9457 6.32816 3.72633 2.01899 -17.74721 -1.31555 -1.59032 -2.43789 3.83993 61.80468 13.70982 79.74958 -21.56015 -3.35082 0.9006 2.19645 -64.171 16.91495 -96.38223 -12.39713 7.78017 2.76141 0.74883 4.29358 -54.3161 -14.7433 -2.03563 5.47541 2.80412 -5.34953 9.23127 -3.6296 4.359 5.25227 8.13863
-1.61541 0.94121 0.39085 1010.84026 0 -4.29272 6.30222 4.07943 1.31965 -17.65516 -1.67908 -2.12422 -2.45203 4.101 61.96721 13.56482 80.45452 -21.27332 -3.46279 0.65574 2.43646 -64.17099 16.8713 -96.30588 -12.4551 7.74184 5.11065 1.30952 4.52635 -56.27924 -10.99218 -1.86635 4.75454 1.93333 -5.33311 8.84632 -3.60428 4.81327 5.47955 8.31798
-1.60544 0.94183 0.40242 1011.04749 0 -4.601 6.30263 4.40487 0.67131 -17.58016 -2.04817 -2.67135 -2.44656 4.35354 62.03848 13.47053 80.95421 -20.96456 -3.54171 0.42252 2.69301 -64.17098 16.86695 -96.28752 -12.51405 7.71933 7.46547 1.75952 4.71563 -58.43313 -7.93842 -1.74528 4.15238 1.05508 -5.34386 8.60854 -3.60195 5.26294 5.67121 8.36737
-1.59529 0.94244 0.41405 1011.12935 0 -4.91445 6.31254 4.76955 -0.00111 -17.47229 -2.50859 -3.20929 -2.4595 4.64334 62.24031 13.3687 81.52928 -20.63942 -3.63069 0.14652 3.01549 -64.17096 16.86325 -96.32758 -12.56666 7.68112 9.9378 2.1984 4.94042 -61.0403 -4.63197 -1.51125 3.64054 0.16642 -5.37807 8.42648 -3.57743 5.72987 5.89292 8.47879
-1.58565 0.943 0.4254 1011.51429 0 -5.23513 6.28825 5.06079 -0.6464 -17.42879 -2.76466 -3.7573 -2.44164 4.85378 62.20639 13.25719 82.04661 -20.36389 -3.71487 -0.04292 3.18551 -64.17095 16.84327 -96.15942 -12.6913 7.68083 12.13928 2.71735 5.11335 -62.53314 -1.5292 -1.49638 2.87273 -0.69596 -5.3471 8.03902 -3.58956 6.15841 6.06769 8.5269
-1.57731 0.94352 0.43617 1012.68917 0 -5.55874 6.1945 5.137 -1.20305 -17.58976 -2.45968 -4.37374 -2.30715 4.85147 61.45599 13.13879 82.32612 -20.20493 -3.77388 0.05376 2.92368 -64.17095 16.73921 -95.9413 -12.45697 7.66795 13.64417 3.40534 5.07972 -61.20203 0.77587 -2.13134 1.44952 -1.49417 -5.15375 7.17933 -3.70635 6.47349 6.08536 8.323
-1.56946 0.94398 0.44668 1014.16382 0 -5.88519 6.06765 5.13732 -1.7269 -17.81399 -1.9527 -4.9948 -2.14294 4.76752 60.47123 13.01529 82.53205 -20.09608 -3.82534 0.23158 2.51498 -64.17091 16.63153 -95.439 -12.38754 7.71367 14.86889 4.16225 4.99801 -58.75202 2.80879 -2.98105 -0.21283 -2.26663 -4.89781 6.12078 -3.86213 6.749 6.05533 8.05178
-1.56137 0.94443 0.4573 1015.50378 0 -6.20742 5.95101 5.17266 -2.25965 -17.9976 -1.54461 -5.59107 -2.00546 4.71604 59.61605 12.89803 82.75902 -19.96965 -3.87759 0.34327 2.19165 -64.17094 16.56687 -94.72998 -12.63226 7.81794 16.19614 4.88117 4.96866 -56.74834 4.89374 -3.70955 -1.74945 -3.04978 -4.6712 5.14315 -4.00294 7.04439 6.05513 7.82544
-1.55336 0.945 0.46794 1016.84299 0 -6.5457 5.85277 5.20736 -2.82279 -18.23087 -1.10389 -6.28233 -1.81384 4.68418 58.66612 12.76046 83.04985 -19.82299 -3.9429 0.57532 1.78896 -64.17092 16.33014 -95.38539 -11.29354 7.57514 17.62795 5.63907 4.81806 -54.98252 7.325 -4.5371 -3.37527 -3.8368 -4.43825 4.19195 -4.1298 7.33193 6.02389 7.54908
-1.54528 0.94533 0.47849 1018.25311 0 -6.84931 5.70875 5.22477 -3.31153 -18.37528 -0.68485 -6.77708 -1.7272 4.59209 57.85842 12.66542 83.18798 -19.72979 -3.97881 0.57948 1.51554 -64.17081 16.44497 -93.1943 -13.21679 8.05259 18.77405 6.32644 4.90152 -52.46694 8.95852 -5.20894 -4.86036 -4.60937 -4.20456 3.14515 -4.29683 7.6267 6.04373 7.35523
-1.53687 0.94504 0.48886 1019.78107 0 -7.06241 5.45111 5.2126 -3.6195 -18.26669 -0.36753 -6.72875 -1.93848 4.35357 57.48289 12.68896 82.89478 -19.77074 -3.931 -0.09482 1.65345 -64.17118 17.59376 -82.68782 -24.76247 10.65116 19.21713 6.82135 5.69441 -48.13427 8.3928 -5.40639 -5.96195 -5.35341 -3.98514 1.86526 -4.55422 7.9467 6.22694 7.42603
-1.52835 0.94452 0.49915 1021.36992 0 -7.2388 5.14828 5.18545 -3.85 -18.06533 -0.08098 -6.48262 -2.25584 4.0576 57.26218 12.75591 82.45361 -19.86356 -3.85421 -0.996 1.92397 -64.17072 19.08565 -69.42541 -39.46585 13.94594 19.37939 7.23815 6.71433 -43.09591 7.03861 -5.43852 -6.90052 -6.08289 -3.76733 0.50165 -4.85333 8.27578 6.46016 7.57655
-1.51987 0.9441 0.50948 1022.93322 0 -7.42793 4.86309 5.16523 -4.10466 -17.90125 0.21481 -6.32658 -2.52421 3.78749 56.98059 12.80373 82.0963 -19.93341 -3.79341 -1.77368 2.12136 -64.1709 20.37963 -57.76926 -52.29039 16.82521 19.65906 7.67674 7.59648 -38.39311 6.07924 -5.54106 -7.87001 -6.81591 -3.54849 -0.81113 -5.14027 8.60397 6.66411 7.67684
-1.51148 0.94372 0.5198 1024.49863 0 -7.63464 4.58784 5.14199 -4.40528 -17.7593 0.53894 -6.16937 -2.79585 3.51411 56.64726 12.84926 81.66649 -20.00321 -3.72102 -2.63353 2.36569 -64.17239 21.84929 -44.60836 -66.98281 20.12243 19.97192 8.17533 8.62386 -33.57479 4.95603 -5.67051 -9.02895 -7.56131 -3.32865 -2.18767 -5.39826 8.91851 6.89707 7.83668
-1.50284 0.9432 0.53012 1026.06955 0 -7.79499 4.28296 5.12232 -4.59168 -17.54923 0.79256 -5.96816 -3.08501 3.23681 56.46604 12.90939 81.35349 -20.08389 -3.66528 -3.37853 2.54841 -64.16794 23.03634 -33.93215 -78.54686 22.71687 20.15276 8.52999 9.40227 -28.8609 3.99165 -5.70248 -9.75307 -8.2774 -3.11216 -3.44534 -5.72797 9.26242 7.07834 7.88899
-1.49364 0.94233 0.54037 1027.6445 0 -7.84534 3.89635 5.11887 -4.48601 -17.16654 0.8706 -5.68872 -3.40727 2.94827 56.62753 13.00378 81.39811 -20.18832 -3.66869 -3.73859 2.50633 -64.17478 23.3434 -30.78335 -80.57091 23.17143 20.03724 8.5017 9.44852 -24.47324 3.64226 -5.49918 -9.30175 -8.91917 -2.90317 -4.38134 -6.22962 9.69936 7.13709 7.65302
-1.48416 0.94132 0.55064 1029.22076 0 -7.84921 3.48395 5.12016 -4.26742 -16.71968 0.87524 -5.3729 -3.74161 2.66147 56.944 13.11035 81.56542 -20.29996 -3.68881 -3.97733 2.40283 -64.1717 23.3568 -30.23271 -79.35919 22.89926 19.7998 8.33229 9.23617 -20.24742 3.482 -5.20368 -8.42105 -9.53104 -2.6973 -5.18901 -6.80565 10.16251 7.13649 7.30137
-1.47474 0.94037 0.56096 1030.79236 0 -7.86758 3.09042 5.11694 -4.09776 -16.30638 0.90523 -5.07687 -4.06365 2.383 57.21823 13.20865 81.67826 -20.40445 -3.69725 -4.28081 2.34245 -64.15365 23.51544 -28.4998 -79.71477 22.97915 19.62029 8.22941 9.13331 -16.03969 3.24998 -4.9535 -7.74387 -10.15529 -2.49217 -6.03629 -7.35679 10.60536 7.14175 6.98425
-1.46561 0.93944 0.57105 1032.38311 0 -7.91006 2.66413 5.11999 -3.93536 -15.87062 0.96937 -4.75957 -4.41837 2.06154 57.38406 13.32087 81.7825 -20.52915 -3.72171 -4.55402 2.22133 -64.21303 23.63786 -26.67875 -79.77899 22.99352 19.42125 8.11141 9.06571 -11.41349 2.93947 -4.68297 -7.02122 -10.78596 -2.28106 -6.96447 -7.86826 11.0864 7.23696 6.7451
-1.4558 0.93844 0.58161 1033.93387 0 -7.89502 2.30178 5.1152 -3.73216 -15.46848 0.94372 -4.48126 -4.70622 1.83385 57.80377 13.40533 81.93319 -20.61027 -3.71745 -4.85549 2.21179 -64.11475 23.75957 -25.69197 -79.63177 22.95996 19.23623 7.99529 8.86851 -7.71447 2.83625 -4.43541 -6.29911 -11.39404 -2.07921 -7.69398 -8.48387 11.49089 7.13121 6.31622
